# xmcd
#
# Track frame offsets: 
#        150
#        19621
#        47295
#        70981
#        92953
#        106848
#        122443
#        140796
#        164708
#        183159
#        197108
#        219977
#        237216
#        255999
#        270530
#        281207
#        298078
#        330445
#
# Disc length: 4609 seconds
#
# Revision: 9
# Processed by: cddbd v1.5.2PL0 Copyright (c) Steve Scherf et al.
# Submitted via: ExactAudioCopyFreeDBPlugin 1.0
#
DISCID=0811ff12
DTITLE=Various Artist - 2001 - The All Time Greatest Songs [Blues] Cd
DTITLE=1
DYEAR=2001
DGENRE=Blues
TTITLE0=Robert Cray - Right Next Door [Because Of Me]
TTITLE1=Gary Moore - Still Got The Blues
TTITLE2=Muddy Waters - Mannish Boy
TTITLE3=The Vaughan Brothers - Tick Tock
TTITLE4=Etta James - I Just Want To Make Love To You
TTITLE5=B.B. King - Ain't Nobode Home
TTITLE6=Muskee - Brother Booze
TTITLE7=Albert Collins - Cold Cold Feeling
TTITLE8=Rory Block - Lovin' Whiskey
TTITLE9=Wilson Pickett - Mustang Sally
TTITLE10=Walter Trout Band - The Love That We Once Knew
TTITLE11=ZZ Top - La Grange
TTITLE12=Freddie King - Tore Down
TTITLE13=Chicken Shack - I'd Rather Go Blind
TTITLE14=J.J. Cale - After Midnight
TTITLE15=Flavium - Nightlife
TTITLE16=Derek and The Dominos - Layla
TTITLE17=Ry Cooder - Dark End Of The Street
EXTD=
EXTT0=
EXTT1=
EXTT2=
EXTT3=
EXTT4=
EXTT5=
EXTT6=
EXTT7=
EXTT8=
EXTT9=
EXTT10=
EXTT11=
EXTT12=
EXTT13=
EXTT14=
EXTT15=
EXTT16=
EXTT17=
PLAYORDER=
